<svg xmlns="http://www.w3.org/2000/svg" viewBox="0 0 16 16">
  <defs>
    <mask id="globe">
      <rect rx="0" ry="0" width="100%" height="100%" fill="white"/>
      <ellipse cx="12" cy="12" rx="4.5" ry="4.5" fill="black"/>
    </mask>
  </defs>
  <g fill="none" fill-rule="evenodd">
    <!-- function node -->
    <path fill="#F98B9E" fill-opacity=".6" d="M15,8 C15,11.866 11.866,15 8,15 C4.134,15 1,11.866 1,8 C1,4.134 4.134,1 8,1 C11.866,1 15,4.134 15,8" mask="url(#globe)"/>
    <path fill="#231F20" fill-opacity=".7" d="M1,8 L2,8 L2,4 L3.5,4 L3.5,3 L2,3 C1.99687783,2.36169171 1.99509925,2.02835838 1.99466424,2 C1.98704681,1.50341351 2.13289549,1.0728225 2.43221029,0.972167969 C2.91964141,0.808253079 3.56884985,1.02114795 3.68984985,1.06414795 L3.98519897,0.226043701 C3.90948298,0.198825534 3.4559021,0 2.81140137,0 C2.16690063,1.40512602e-16 1.81677246,0.0614013672 1.4818929,0.388793945 C1.16513106,0.698473875 1.01614114,1.22015248 1.00124609,2 C1.00039414,2.04460465 0.999980878,2.95274463 1,3 C1.00000736,3.01819872 0.666674031,3.01819872 0,3 L0,3.972 L1,3.972 L1,8 Z" transform="translate(6 4)"/>

    <!-- web endpoint globe -->
    <path fill="#6E6E6E" fill-opacity=".8" d="M12,8 C9.792,8 8,9.792 8,12 C8,14.208 9.792,16 12,16 C14.208,16 16,14.208 16,12 C16,9.792 14.208,8 12,8 Z M11.6,15.172 C10.02,14.976 8.8,13.632 8.8,12 C8.8,11.752 8.832,11.516 8.884,11.284 L10.8,13.2 L10.8,13.6 C10.8,14.04 11.16,14.4 11.6,14.4 L11.6,15.172 Z M14.36,14.156 C14.256,13.832 13.96,13.6 13.6,13.6 L13.2,13.6 L13.2,12.4 C13.2,12.18 13.02,12 12.8,12 L10.4,12 L10.4,11.2 L11.2,11.2 C11.42,11.2 11.6,11.02 11.6,10.8 L11.6,10 L12.4,10 C12.84,10 13.2,9.64 13.2,9.2 L13.2,9.036 C14.372,9.512 15.2,10.66 15.2,12 C15.2,12.832 14.88,13.588 14.36,14.156 Z"/>
  </g>
</svg>
