<!-- Copyright 2000-2021 JetBrains s.r.o. Use of this source code is governed by the Apache 2.0 license that can be found in the LICENSE file. -->
<svg xmlns="http://www.w3.org/2000/svg" width="16" height="16" viewBox="0 0 16 16">
    <g fill="none" fill-rule="evenodd">
        <g fill="#6E6E6E" transform="translate(1 1)">
            <rect width="2.2" height="6.242" x="10.157" y="8.036" transform="rotate(-45 11.257 11.157)"/>
            <path d="M0.00533709299,6 C0.00179110081,5.91710914 -4e-16,5.83376374 -4e-16,5.75 C-4e-16,2.57436269 2.57436269,0 5.75,0 C8.92563731,0 11.5,2.57436269 11.5,5.75 C11.5,8.49635877 9.57459329,10.7930147 7,11.3637477 L7,9.28661787 C8.45649047,8.77182236 9.5,7.38277353 9.5,5.75 C9.5,3.67893219 7.82106781,2 5.75,2 C3.67893219,2 2,3.67893219 2,5.75 C2,5.83400714 2.00276234,5.9173691 2.00820114,6 L0.00533709299,6 Z"/>
        </g>
    </g>
    <g transform="scale(0.5, 0.5) translate(0, 13)">
        <path fill="#389FD6" fill-rule="evenodd" d="M14.0431479,8.44999981 L14.3048222,13.4430431 L12.574725,11.885269 C11.4741571,13.1817306 9.83248424,14.0044386 7.99865879,14.0044386 C5.03921121,14.0044386 2.58020312,11.8617896 2.08827651,9.04314243 L3.94798986,9.10858763 C4.43427312,10.8903005 6.0642585,12.2000519 8.00015362,12.2000519 C9.30169687,12.2000519 10.4649641,11.6080237 11.2353504,10.6785714 L9.05000019,8.71167959 L14.0431479,8.44999981 Z M7.99865879,2.00443857 C10.9184669,2.00443857 13.3511517,4.09007371 13.888219,6.85284133 L12.0226275,6.7880427 C11.5024638,5.05933714 9.89836709,3.8000774 8.00015362,3.8000774 C6.69883692,3.8000774 5.53574811,4.39189956 4.76535914,5.32107268 L6.95482203,7.29304326 L1.96167436,7.55472304 L1.70000005,2.56167973 L3.42768119,4.11762166 C4.52821742,2.82461451 6.1676575,2.00443857 7.99865879,2.00443857 Z" transform="rotate(3 8.002 8.004)"/>
    </g>
</svg>
