<svg xmlns="http://www.w3.org/2000/svg" width="16" height="16" viewBox="0 0 16 16">
    <path fill="#b1bbc2" fill-rule="evenodd" d="M8,1 C4.136,1 1,4.136 1,8 C1,11.864 4.136,15 8,15 C11.864,15 15,11.864 15,8 C15,4.136 11.864,1 8,1 Z M7.3,13.551 C4.535,13.208 2.4,10.856 2.4,8 C2.4,7.566 2.456,7.153 2.547,6.747 L5.9,10.1 L5.9,10.8 C5.9,11.57 6.53,12.2 7.3,12.2 L7.3,13.551 Z M12.13,11.773 C11.948,11.206 11.43,10.8 10.8,10.8 L10.1,10.8 L10.1,8.7 C10.1,8.315 9.785,8 9.4,8 L5.2,8 L5.2,6.6 L6.6,6.6 C6.985,6.6 7.3,6.285 7.3,5.9 L7.3,4.5 L8.7,4.5 C9.47,4.5 10.1,3.87 10.1,3.1 L10.1,2.813 C12.151,3.646 13.6,5.655 13.6,8 C13.6,9.456 13.04,10.779 12.13,11.773 Z"/>
    <g id="overlay" opacity="0.6" fill="#62b543">
        <rect x="4" y="9" width="11" height="7"/>
    </g>
    <g id="xquery" fill="#231f20" opacity="1" transform="translate(3,0)">
        <g id="x">
            <polygon points="2 10 3 10 6.5 15 5.5 15"/>
            <polygon points="6.5 10 5.5 10 2 15 3 15"/>
        </g>
        <g id="q">
            <path d="m 7,12.51378 0,-0.0135 C 7,11.13935 7.62276,10 8.50417,10 9.38525,10 10,11.12586 10,12.48622 l 0,0.01406 C 10,13.86065 9.37724,15 8.49583,15 7.61475,15 7,13.8747 7,12.51378 Z m 2.26072,0 0,-0.0135 c 0,-0.93971 -0.19519,-1.85584 -0.76489,-1.85584 -0.5697,0 -0.72368,0.90263 -0.72368,1.84178 l 0,0.01406 c 0,0.93915 0.16233,1.78861 0.732,1.78861 0.56967,0 0.75657,-0.83596 0.75657,-1.77511 z"/>
            <polygon points="9 12.5 8 12.5 10 15 11 15"/>
        </g>
    </g>
</svg>
