<svg xmlns="http://www.w3.org/2000/svg" viewBox="0 0 16 16">
  <g>
    <g id="file" opacity="0.7" fill="#9aa7b0">
      <polygon points="6 0 2 4 6 4 6 0"/>
      <polygon points="7 0 7 4 7 5 6 5 2 5 2 8 13 8 13 0 7 0"/>
    </g>
    <g id="filetype-background" opacity="0.6" fill="#f26522">
      <rect x="1" y="9" width="15" height="7"/>
    </g>
    <g id="filetype" fill="#231f20" opacity="1">
      <g id="x">
        <polygon points="2 10 3 10 6.5 15 5.5 15"/>
        <polygon points="6.5 10 5.5 10 2 15 3 15"/>
      </g>
      <g id="s" transform="translate(6.75,10)">
        <path d="M 2,2
                     L 2.5,2
                     A 1,0.9 0 0,1 3,5
                     L 0.5,5
                     L 0.5,4
                     L 3,4
                     A 1,0.75 0 0,0 3,3
                     L 2,3
                     A 1,1 0 0,1 2,0
                     L 4,0
                     L 4,1
                     L 2,1
                     A 1,0.65 0 0,0 2,2
                     Z"/>
      </g>
      <g id="l" transform="translate(12,10)">
        <polygon points="0 0 1 0 1 5 0 5"/>
        <polygon points="0 5 0 4 3 4 3 5"/>
      </g>
    </g>
  </g>
</svg>