<svg id="xslt" xmlns="http://www.w3.org/2000/svg" width="16" height="16" viewBox="0 0 16 16">
    <title>xslt</title>
    <g id="frame" fill="#9aa7b0" fill-rule="evenodd" opacity="0.8">
        <path d="M0,0 L16,0 L16,15 L0,15 L0,0 Z M1,3 L1,14 L15,14 L15,3 L3,3 Z"/>
    </g>
    <g id="background" opacity="0.7" fill="#f26522">
        <rect width="12" height="9" x="2" y="4"/>
    </g>
    <g id="filetype" fill="#231f20" opacity="1" transform="translate(-1,-4)">
        <g id="x" transform="translate(1,0)">
            <polygon points="2 10 3 10 6.5 15 5.5 15"/>
            <polygon points="6.5 10 5.5 10 2 15 3 15"/>
        </g>
        <g id="s" transform="translate(7.25,10)">
            <path d="M 2,2
                     L 2.5,2
                     A 1,0.9 0 0,1 3,5
                     L 0.5,5
                     L 0.5,4
                     L 3,4
                     A 1,0.75 0 0,0 3,3
                     L 2,3
                     A 1,1 0 0,1 2,0
                     L 4,0
                     L 4,1
                     L 2,1
                     A 1,0.65 0 0,0 2,2
                     Z"/>
        </g>
        <g id="l" transform="translate(12,10)">
            <polygon points="0 0 1 0 1 5 0 5"/>
            <polygon points="0 5 0 4 3 4 3 5"/>
        </g>
    </g>
</svg>
