<svg xmlns="http://www.w3.org/2000/svg" width="16" height="16" viewBox="0 0 16 16">
    <g id="frame" fill="#9aa7b0" fill-rule="evenodd" opacity="0.8">
        <path d="M0,0 L16,0 L16,15 L0,15 L0,0 Z M1,3 L1,14 L15,14 L15,3 L3,3 Z"/>
    </g>
    <g id="background" opacity="0.4" fill="#f20298">
        <rect width="12" height="9" x="2" y="4"/>
    </g>
    <g id="filetype" fill="#231f20" opacity="1">
        <g id="s" transform="translate(1.5,6)">
            <path d="M 2,2
                     L 2.5,2
                     A 1,0.9 0 0,1 3,5
                     L 0.5,5
                     L 0.5,4
                     L 3,4
                     A 1,0.75 0 0,0 3,3
                     L 2,3
                     A 1,1 0 0,1 2,0
                     L 4,0
                     L 4,1
                     L 2,1
                     A 1,0.65 0 0,0 2,2
                     Z"/>
        </g>
        <g id="p" transform="translate(-1,-4)">
            <polygon points="7.5 10 8.3 10 8.3 15 7.5 15"/>
            <path d="M 7.5,10
                     L 9.5,10
                     A 1,1 0 0,1 10,13.1
                     L 7.5,13.1
                     L 7.5,12.2
                     L 10,12.2
                     A 1,0.75 0 0,0 10,11
                     L 7.5,11
                     Z"/>
        </g>
        <g id="q" transform="translate(3.5,-4)">
            <path d="m 7,12.51378 0,-0.0135 C 7,11.13935 7.62276,10 8.50417,10 9.38525,10 10,11.12586 10,12.48622 l 0,0.01406 C 10,13.86065 9.37724,15 8.49583,15 7.61475,15 7,13.8747 7,12.51378 Z m 2.26072,0 0,-0.0135 c 0,-0.93971 -0.19519,-1.85584 -0.76489,-1.85584 -0.5697,0 -0.72368,0.90263 -0.72368,1.84178 l 0,0.01406 c 0,0.93915 0.16233,1.78861 0.732,1.78861 0.56967,0 0.75657,-0.83596 0.75657,-1.77511 z"/>
            <polygon points="9 12.5 8 12.5 10 15 11 15"/>
        </g>
    </g>
</svg>
