<svg xmlns="http://www.w3.org/2000/svg" width="16" height="16" viewBox="0 0 16 16">
    <g id="frame" fill="#9aa7b0" fill-rule="evenodd" opacity="0.8">
        <path d="M0,0 L16,0 L16,15 L0,15 L0,0 Z M1,3 L1,14 L15,14 L15,3 L3,3 Z"/>
    </g>
    <g id="background" opacity="0.6" fill="#62b543">
        <rect width="12" height="9" x="2" y="4"/>
    </g>
    <g id="filetype" fill="#231f20" opacity="1" transform="translate(1.5,-4)">
        <g id="x">
            <polygon points="2 10 3 10 6.5 15 5.5 15"/>
            <polygon points="6.5 10 5.5 10 2 15 3 15"/>
        </g>
        <g id="q">
            <path d="m 7,12.51378 0,-0.0135 C 7,11.13935 7.62276,10 8.50417,10 9.38525,10 10,11.12586 10,12.48622 l 0,0.01406 C 10,13.86065 9.37724,15 8.49583,15 7.61475,15 7,13.8747 7,12.51378 Z m 2.26072,0 0,-0.0135 c 0,-0.93971 -0.19519,-1.85584 -0.76489,-1.85584 -0.5697,0 -0.72368,0.90263 -0.72368,1.84178 l 0,0.01406 c 0,0.93915 0.16233,1.78861 0.732,1.78861 0.56967,0 0.75657,-0.83596 0.75657,-1.77511 z"/>
            <polygon points="9 12.5 8 12.5 10 15 11 15"/>
        </g>
    </g>
</svg>
