<svg xmlns="http://www.w3.org/2000/svg" viewBox="0 0 16 16">
  <g>
    <g id="file" opacity="0.7" fill="#9aa7b0">
      <polygon points="6 0 2 4 6 4 6 0"/>
      <polygon points="7 0 7 4 7 5 6 5 2 5 2 8 13 8 13 0 7 0"/>
    </g>
    <g id="filetype-background" opacity="0.6" fill="#32a5e3">
      <rect x="1" y="9" width="15" height="7"/>
    </g>
    <g id="filetype" fill="#231f20" opacity="1">
      <g id="x">
        <polygon points="2 10 3 10 6.5 15 5.5 15"/>
        <polygon points="6.5 10 5.5 10 2 15 3 15"/>
      </g>
      <g id="p">
        <polygon points="7.5 10 8.3 10 8.3 15 7.5 15"/>
        <path d="
            M 7.5,10
            L 9.5,10
            A 1,1 0 0,1 10,13.1
            L 7.5,13.1
            L 7.5,12.2
            L 10,12.2
            A 1,0.75 0 0,0 10,11
            L 7.5,11
            Z"/>
      </g>
    </g>
  </g>
</svg>
