<svg id="xpath-163" xmlns="http://www.w3.org/2000/svg" viewBox="0 0 16 16">
  <title>xpath-163</title>
  <g>
    <rect x="1" y="9" width="15" height="7" fill="#62b543" opacity="0.6"/>
    <g>
      <polygon points="6 0 2 4 6 4 6 0" fill="#9aa7b0" opacity="0.7" style="isolation: isolate"/>
      <polygon points="7 0 7 4 7 5 6 5 2 5 2 8 13 8 13 0 7 0" fill="#9aa7b0" opacity="0.7" style="isolation: isolate"/>
    </g>
    <!-- X -->
    <path d="M6.52622,10L4.81389,12.44271,6.59649,15H5.57892l-1.2981-1.90706L2.98957,15H2l1.77575-2.54275L2.07028,10H3.08785l1.221,1.81459L5.53664,10H6.52622Z" fill="#231f20" opacity="1"/>
    <!-- Q -->
    <path d="m 7,12.51378 0,-0.0135 C 7,11.13935 7.62276,10 8.50417,10 9.38525,10 10,11.12586 10,12.48622 l 0,0.01406 C 10,13.86065 9.37724,15 8.49583,15 7.61475,15 7,13.8747 7,12.51378 Z m 2.26072,0 0,-0.0135 c 0,-0.93971 -0.19519,-1.85584 -0.76489,-1.85584 -0.5697,0 -0.72368,0.90263 -0.72368,1.84178 l 0,0.01406 c 0,0.93915 0.16233,1.78861 0.732,1.78861 0.56967,0 0.75657,-0.83596 0.75657,-1.77511 z" opacity="1" fill="#231f20"/>
    <path d="m 9.0241195,12.451184 1.7826005,2.55729 -1.0175705,0 -1.8235238,-2.568077 z" opacity="1" fill="#231f20"/>
  </g>
</svg>
